<svg width="24" height="17" viewBox="0 0 24 17" fill="none" xmlns="http://www.w3.org/2000/svg">
<path d="M7.5 7.25L9.15395 7.80132C11.0014 8.41712 12.9986 8.41712 14.8461 7.80132L16.5 7.25" stroke="#111111" stroke-width="1.5" stroke-linecap="round"/>
<path d="M7.5 10.25L9.15395 10.8013C11.0014 11.4171 12.9986 11.4171 14.8461 10.8013L16.5 10.25" stroke="#111111" stroke-width="1.5" stroke-linecap="round"/>
<path d="M4.5 5.00004L4.22146 4.30368C3.93671 4.41758 3.75 4.69336 3.75 5.00004H4.5ZM19.5 5.00004H20.25C20.25 4.69336 20.0633 4.41758 19.7785 4.30368L19.5 5.00004ZM8.59715 3.22232L8.12862 2.63667L8.59715 3.22232ZM16.1628 3.66515L15.8842 4.3615L16.1628 3.66515ZM13.8741 1.99931L13.4056 2.58496L13.8741 1.99931ZM7.36954 14.2217L6.98367 14.8648L7.36954 14.2217ZM5.22826 12.937L4.84239 13.5801L5.22826 12.937ZM18.75 5.00004V11.6507H20.25V5.00004H18.75ZM5.25 11.6507V5.00004H3.75V11.6507H5.25ZM18.3859 12.2938L16.2446 13.5786L17.0163 14.8648L19.1576 13.5801L18.3859 12.2938ZM7.75541 13.5786L5.61413 12.2938L4.84239 13.5801L6.98367 14.8648L7.75541 13.5786ZM13.4056 2.58496L14.9343 3.80797L15.8714 2.63667L14.3426 1.41366L13.4056 2.58496ZM15.8842 4.3615L19.2215 5.6964L19.7785 4.30368L16.4413 2.96879L15.8842 4.3615ZM4.77854 5.6964L8.11578 4.3615L7.55869 2.96879L4.22146 4.30368L4.77854 5.6964ZM9.06567 3.80797L10.5944 2.58496L9.65739 1.41366L8.12862 2.63667L9.06567 3.80797ZM8.11578 4.3615C8.45788 4.22466 8.77795 4.03815 9.06567 3.80797L8.12862 2.63667C7.95599 2.77478 7.76395 2.88668 7.55869 2.96879L8.11578 4.3615ZM14.9343 3.80797C15.222 4.03815 15.5421 4.22466 15.8842 4.3615L16.4413 2.96879C16.236 2.88668 16.044 2.77478 15.8714 2.63667L14.9343 3.80797ZM14.3426 1.41366C12.973 0.318004 11.027 0.318004 9.65739 1.41366L10.5944 2.58496C11.4162 1.92757 12.5838 1.92757 13.4056 2.58496L14.3426 1.41366ZM16.2446 13.5786C13.632 15.1462 10.368 15.1462 7.75541 13.5786L6.98367 14.8648C10.0713 16.7174 13.9287 16.7174 17.0163 14.8648L16.2446 13.5786ZM3.75 11.6507C3.75 12.4411 4.16467 13.1734 4.84239 13.5801L5.61413 12.2938C5.38822 12.1583 5.25 11.9142 5.25 11.6507H3.75ZM18.75 11.6507C18.75 11.9142 18.6118 12.1583 18.3859 12.2938L19.1576 13.5801C19.8353 13.1734 20.25 12.4411 20.25 11.6507H18.75Z" fill="#111111"/>
<path d="M19.5 5.59997L20.5393 4.56063C21.4843 3.61568 23.1 4.28493 23.1 5.62129V9.49998C23.1 10.3284 22.4284 11 21.6 11H19.5V5.59997Z" stroke="#111111" stroke-width="1.5"/>
<path d="M4.49999 5.59997L3.46065 4.56063C2.5157 3.61568 0.899994 4.28493 0.899994 5.62129V9.49998C0.899994 10.3284 1.57156 11 2.39999 11H4.49999V5.59997Z" stroke="#111111" stroke-width="1.5"/>
</svg>
