<svg width="24" height="24" viewBox="0 0 24 24" fill="none" xmlns="http://www.w3.org/2000/svg">
<path d="M1.11914 0.894287L2.87145 1.25844C3.45148 1.37898 3.90623 1.82961 4.03204 2.40852L7.35688 17.708C7.50674 18.3976 8.11699 18.8894 8.82267 18.8894H22.7674M4.15311 2.96564L21.6232 4.68537C22.4413 4.7659 23.0422 5.48994 22.9705 6.30889L22.6584 9.87596C22.5995 10.5495 22.0973 11.1003 21.4321 11.2211L7.07242 13.8283L4.15311 2.96564Z" stroke="#111111" stroke-width="1.5" stroke-linecap="round"/>
<path d="M7.27539 23.2302C7.71117 23.2302 8.06444 22.8769 8.06444 22.4412C8.06444 22.0054 7.71117 21.6521 7.27539 21.6521C6.8396 21.6521 6.48633 22.0054 6.48633 22.4412C6.48633 22.8769 6.8396 23.2302 7.27539 23.2302Z" fill="#111111" stroke="#111111" stroke-width="1.5"/>
<path d="M18.6396 23.2302C19.0754 23.2302 19.4287 22.8769 19.4287 22.4412C19.4287 22.0054 19.0754 21.6521 18.6396 21.6521C18.2038 21.6521 17.8506 22.0054 17.8506 22.4412C17.8506 22.8769 18.2038 23.2302 18.6396 23.2302Z" fill="#111111" stroke="#111111" stroke-width="1.5"/>
</svg>
