<svg width="25" height="20" viewBox="0 0 25 20" fill="none" xmlns="http://www.w3.org/2000/svg">
<path d="M7.46657 1.71117L5.67556 1.91036C4.40002 3.03904 3.11534 4.82662 1.83056 7.35432C0.545775 9.88202 0.0660535 12.2379 0.309981 14.4312C0.4726 15.8933 0.933752 17.0755 1.85626 17.9597C2.77876 18.844 3.9727 19.2046 5.51948 19.0325C6.74062 18.8967 7.75376 18.3729 8.47751 17.47C9.20126 16.5672 9.58131 15.5381 9.44579 14.3197C9.29221 12.9387 8.6049 11.9461 7.54668 11.3237C6.40705 10.7104 5.05932 10.4491 3.59396 10.6121L7.46657 1.71117ZM22.2831 0.0632856L20.4921 0.26248C19.2165 1.39116 17.9318 3.17874 16.647 5.70644C15.3623 8.23414 14.8825 10.5901 15.1265 12.7833C15.2891 14.2454 15.7502 15.4276 16.6728 16.3119C17.5953 17.1961 18.7892 17.5567 20.336 17.3847C21.5571 17.2488 22.5703 16.725 23.294 15.8221C24.0178 14.9193 24.3978 13.8902 24.2623 12.6718C24.1087 11.2909 23.4214 10.2983 22.3632 9.67584C21.2235 9.06247 19.8758 8.80119 18.4105 8.96417L22.2831 0.0632856Z" fill="#EFBE96"/>
</svg>
