<svg width="27" height="21" viewBox="0 0 27 21" fill="none" xmlns="http://www.w3.org/2000/svg">
<path d="M15.0283 19.8857L16.769 20.3521C18.3679 19.7652 20.2151 18.5679 22.3318 16.6813C24.4486 14.7946 25.7529 12.775 26.3241 10.6434C26.7049 9.22239 26.7057 7.9534 26.1683 6.79404C25.631 5.63469 24.6502 4.86422 23.1469 4.46141C21.9601 4.14341 20.8258 4.26253 19.823 4.83999C18.8203 5.41745 18.0917 6.23759 17.7744 7.42179C17.4148 8.76386 17.6937 9.93856 18.4527 10.9035C19.2909 11.8896 20.4511 12.6235 21.8752 13.0051L15.0283 19.8857ZM0.628457 16.0273L2.3691 16.4937C3.96799 15.9068 5.81522 14.7094 7.93196 12.8228C10.0487 10.9362 11.3531 8.91652 11.9242 6.78498C12.305 5.36395 12.3058 4.09496 11.7684 2.93561C11.2311 1.77626 10.2503 1.00578 8.74703 0.602975C7.56023 0.284973 6.4259 0.404099 5.42316 0.981555C4.42042 1.55901 3.69186 2.37916 3.37456 3.56335C3.01495 4.90543 3.2938 6.08013 4.05286 7.04504C4.89104 8.03116 6.05119 8.76509 7.47536 9.14669L0.628457 16.0273Z" fill="#EFBE96"/>
</svg>
