<svg width="20" height="20" viewBox="0 0 20 20" fill="none" xmlns="http://www.w3.org/2000/svg">
<path d="M14.548 17.8363V17.8362L14.5423 17.8329L10.9164 15.6818C10.8189 15.624 10.7082 15.5922 10.5949 15.5895C10.2349 15.5809 9.88364 15.5554 9.55592 15.5062L9.55474 15.5061C9.54831 15.5051 9.54364 15.5028 9.54036 15.5002C9.53735 15.4978 9.53455 15.4945 9.53235 15.4888C9.53152 15.4866 9.53107 15.485 9.53083 15.484C9.53147 15.4829 9.53268 15.4811 9.53475 15.4786C10.2325 14.665 10.5982 13.6815 10.5982 12.6352C10.5982 10.0347 8.3261 8.00637 5.64214 8.00637C4.63747 8.00637 3.66228 8.28255 2.83512 8.82478C2.82868 8.82855 2.82446 8.82918 2.82235 8.82933C2.8207 8.82945 2.81749 8.82948 2.81228 8.82775C2.81054 8.82666 2.80883 8.82544 2.80721 8.8241C2.8042 8.82163 2.80202 8.8192 2.80059 8.81728C2.80003 8.81653 2.79964 8.81593 2.79938 8.81549C2.77436 8.58044 2.75873 8.35442 2.75873 8.12519C2.75873 4.04692 6.31009 0.661133 10.76 0.661133C15.2098 0.661133 18.7612 4.04692 18.7612 8.12519C18.7612 10.37 17.7239 12.4392 15.8723 13.8647C15.6867 14.0077 15.5906 14.2381 15.6197 14.4706L15.9265 16.9242C15.9266 16.9249 15.9267 16.9256 15.9268 16.9264C15.9689 17.291 15.8119 17.6225 15.5101 17.819C15.36 17.9151 15.1855 17.9663 15.0188 17.9663C14.8533 17.9663 14.6927 17.9241 14.548 17.8363ZM10.1597 14.5899C10.0534 14.8023 10.0693 15.0555 10.2013 15.2529C10.3269 15.4409 10.5392 15.551 10.7637 15.5466C10.7674 15.5489 10.7712 15.5512 10.775 15.5535L14.5574 17.8002C14.7176 17.8991 14.9019 17.9478 15.0922 17.9315C15.2692 17.9163 15.4055 17.849 15.4935 17.7918C15.6893 17.667 15.952 17.3731 15.8913 16.9239L15.5403 14.0807C15.539 14.062 15.5467 14.0514 15.5511 14.0475C17.5565 12.6387 18.7271 10.4743 18.7271 8.1071C18.7271 3.96296 15.1097 0.676575 10.76 0.676575C6.57301 0.676575 3.06408 3.72767 2.80337 7.65666C2.78842 7.88192 2.88946 8.09924 3.07132 8.23299C3.25319 8.36675 3.49074 8.39844 3.70132 8.31706C4.30625 8.08326 4.95801 7.95479 5.6331 7.95479C8.42521 7.95479 10.6233 10.0814 10.6233 12.6171L10.6234 12.6246C10.6311 13.3079 10.4684 13.9727 10.1597 14.5899Z" stroke="#111111" stroke-width="1.32216" stroke-linejoin="round"/>
<path d="M2.69387 18.6701L2.69084 18.6681C2.4938 18.5412 2.39579 18.334 2.4196 18.1097L2.59962 16.7242C2.62911 16.4971 2.53904 16.271 2.36152 16.1264C1.28818 15.2522 0.661072 13.9642 0.661072 12.6261C0.661072 11.0996 1.45949 9.6604 2.82371 8.7912L2.82373 8.79123L2.82884 8.7879C3.65052 8.25365 4.62797 7.96387 5.65129 7.96387C8.4434 7.96387 10.6415 10.0905 10.6415 12.6261C10.6415 13.6594 10.2652 14.6826 9.57035 15.4955L9.57027 15.4954L9.56298 15.5043C8.6698 16.5866 7.32443 17.2312 5.81988 17.2797C5.70833 17.2833 5.59952 17.3151 5.50357 17.3721L3.29871 18.6818C3.29854 18.6819 3.29837 18.682 3.2982 18.6821C3.20662 18.736 3.10692 18.7616 3.00197 18.7616C2.8913 18.7616 2.79132 18.7336 2.69387 18.6701ZM3.47515 18.527L5.63307 17.2454C5.64153 17.2406 5.64763 17.238 5.65106 17.2368C7.15824 17.2343 8.60278 16.5893 9.53151 15.463C10.2213 14.6466 10.5983 13.6671 10.5983 12.6171C10.5983 10.0246 8.32518 7.9974 5.64225 7.9974C4.63627 7.9974 3.65981 8.27425 2.83191 8.81795C1.49984 9.67245 0.686185 11.0855 0.686185 12.6261C0.686185 14.1079 1.4147 15.4552 2.67054 16.3147C2.67412 16.3173 2.67578 16.3198 2.67698 16.3224C2.67822 16.3252 2.67994 16.3306 2.67946 16.3394L2.48192 17.8742C2.44965 18.1249 2.56322 18.3721 2.7745 18.511C2.98578 18.6499 3.25776 18.6561 3.47515 18.527Z" stroke="#111111" stroke-width="1.32216" stroke-linejoin="round"/>
<path d="M7.2832 6.06958H14.5667" stroke="#111111" stroke-width="1.32216" stroke-linecap="round"/>
<path d="M9.71094 9.7113H14.5666" stroke="#111111" stroke-width="1.32216" stroke-linecap="round"/>
<path d="M3.6416 11.5322H7.28335" stroke="#111111" stroke-width="1.32216" stroke-linecap="round"/>
<path d="M4.85547 13.96H7.2833" stroke="#111111" stroke-width="1.32216" stroke-linecap="round"/>
</svg>
